<?xml version="1.0" encoding="UTF-8" standalone="no"?>
<!DOCTYPE svg PUBLIC "-//W3C//DTD SVG 1.1//EN"
 "http://www.w3.org/Graphics/SVG/1.1/DTD/svg11.dtd">
<!-- Generated by graphviz version 2.26.3 (20100126.1600)
 -->
<!-- Title: G Pages: 1 -->
<svg width="152pt" height="234pt"
 viewBox="0.00 0.00 152.00 234.00" xmlns="http://www.w3.org/2000/svg" xmlns:xlink="http://www.w3.org/1999/xlink">
<g id="graph1" class="graph" transform="scale(1 1) rotate(0) translate(4 230)">
<title>G</title>
<polygon fill="white" stroke="white" points="-4,5 -4,-230 149,-230 149,5 -4,5"/>
<g id="graph2" class="cluster"><title>cluster_Application</title>
<polyline fill="none" stroke="gray" points="46,-8 97,-8 "/>
<path fill="none" stroke="gray" d="M97,-8C103,-8 109,-14 109,-20"/>
<polyline fill="none" stroke="gray" points="109,-20 109,-124 "/>
<path fill="none" stroke="gray" d="M109,-124C109,-130 103,-136 97,-136"/>
<polyline fill="none" stroke="gray" points="97,-136 46,-136 "/>
<path fill="none" stroke="gray" d="M46,-136C40,-136 34,-130 34,-124"/>
<polyline fill="none" stroke="gray" points="34,-124 34,-20 "/>
<path fill="none" stroke="gray" d="M34,-20C34,-14 40,-8 46,-8"/>
<text text-anchor="middle" x="71.5" y="-122.1" font-family="Times Roman,serif" font-size="11.00" fill="gray">Application</text>
</g>
<g id="graph3" class="cluster"><title>cluster_global</title>
<polyline fill="none" stroke="gray" points="20,-144 124,-144 "/>
<path fill="none" stroke="gray" d="M124,-144C130,-144 136,-150 136,-156"/>
<polyline fill="none" stroke="gray" points="136,-156 136,-206 "/>
<path fill="none" stroke="gray" d="M136,-206C136,-212 130,-218 124,-218"/>
<polyline fill="none" stroke="gray" points="124,-218 20,-218 "/>
<path fill="none" stroke="gray" d="M20,-218C14,-218 8,-212 8,-206"/>
<polyline fill="none" stroke="gray" points="8,-206 8,-156 "/>
<path fill="none" stroke="gray" d="M8,-156C8,-150 14,-144 20,-144"/>
<text text-anchor="middle" x="72" y="-204.1" font-family="Times Roman,serif" font-size="11.00" fill="gray">global</text>
</g>
<!-- \\Application\\API -->
<g id="node2" class="node"><title>\\Application\\API</title>
<a xlink:href="library.Application.API.html" xlink:title="API" target="_parent">
<polygon fill="none" stroke="black" points="99,-106 45,-106 45,-70 99,-70 99,-106"/>
<text text-anchor="middle" x="72" y="-85.1" font-family="Courier,monospace" font-size="11.00">API</text>
</a>
</g>
<!-- \\Application\\Config -->
<g id="node3" class="node"><title>\\Application\\Config</title>
<a xlink:href="library.Application.Config.html" xlink:title="Config" target="_parent">
<polygon fill="none" stroke="black" points="100,-52 44,-52 44,-16 100,-16 100,-52"/>
<text text-anchor="middle" x="72" y="-31.1" font-family="Courier,monospace" font-size="11.00">Config</text>
</a>
</g>
<!-- \\SplClassLoader -->
<g id="node5" class="node"><title>\\SplClassLoader</title>
<a xlink:href="library.base.html" xlink:title="SplClassLoader" target="_parent">
<polygon fill="none" stroke="black" points="127,-188 17,-188 17,-152 127,-152 127,-188"/>
<text text-anchor="middle" x="72" y="-167.1" font-family="Courier,monospace" font-size="11.00">SplClassLoader</text>
</a>
</g>
</g>
</svg>
