<?xml version="1.0" encoding="UTF-8" standalone="no"?>
<!DOCTYPE svg PUBLIC "-//W3C//DTD SVG 1.1//EN"
 "http://www.w3.org/Graphics/SVG/1.1/DTD/svg11.dtd">
<!-- Generated by graphviz version 2.30.1 (20130221.2233)
 -->
<!-- Title: G Pages: 1 -->
<svg width="150pt" height="204pt"
 viewBox="0.00 0.00 150.00 204.00" xmlns="http://www.w3.org/2000/svg" xmlns:xlink="http://www.w3.org/1999/xlink">
<g id="graph0" class="graph" transform="scale(1 1) rotate(0) translate(4 200)">
<title>G</title>
<polygon fill="white" stroke="white" points="-4,5 -4,-200 147,-200 147,5 -4,5"/>
<g id="clust1" class="cluster"><title>cluster_global</title>
<path fill="none" stroke="gray" d="M20,-8C20,-8 122,-8 122,-8 128,-8 134,-14 134,-20 134,-20 134,-176 134,-176 134,-182 128,-188 122,-188 122,-188 20,-188 20,-188 14,-188 8,-182 8,-176 8,-176 8,-20 8,-20 8,-14 14,-8 20,-8"/>
<text text-anchor="middle" x="71" y="-175.2" font-family="Times,serif" font-size="11.00" fill="gray">global</text>
</g>
<!-- \\API -->
<g id="node1" class="node"><title>\\API</title>
<g id="a_node1"><a xlink:href="library.Application.API.html" xlink:title="API" target="_parent">
<polygon fill="none" stroke="black" points="98,-160 44,-160 44,-124 98,-124 98,-160"/>
<text text-anchor="middle" x="71" y="-139.2" font-family="Courier,monospace" font-size="11.00">API</text>
</a>
</g>
</g>
<!-- \\Config -->
<g id="node2" class="node"><title>\\Config</title>
<g id="a_node2"><a xlink:href="library.Application.Config.html" xlink:title="Config" target="_parent">
<polygon fill="none" stroke="black" points="99,-106 43,-106 43,-70 99,-70 99,-106"/>
<text text-anchor="middle" x="71" y="-85.2" font-family="Courier,monospace" font-size="11.00">Config</text>
</a>
</g>
</g>
<!-- \\SplClassLoader -->
<g id="node3" class="node"><title>\\SplClassLoader</title>
<g id="a_node3"><a xlink:href="library.base.html" xlink:title="SplClassLoader" target="_parent">
<polygon fill="none" stroke="black" points="125.5,-52 16.5,-52 16.5,-16 125.5,-16 125.5,-52"/>
<text text-anchor="middle" x="71" y="-31.2" font-family="Courier,monospace" font-size="11.00">SplClassLoader</text>
</a>
</g>
</g>
</g>
</svg>
